<svg width="1414" height="1036" viewBox="0 0 1414 1036" fill="none" xmlns="http://www.w3.org/2000/svg">
<rect width="1414" height="1036" fill="#1E1E1E"/>
<g id="ZONE-1">
<path id="Vector 15" d="M501.092 300L467.592 308L491.092 379V415.5L501.092 452V472L542.592 458.5H589.092L645.592 466.5L710.092 472L716.592 432L701.092 393.5L710.092 349.5H684.092L600.092 323.5L501.092 300Z" stroke="black" stroke-width="5"/>
<path id="Vector 17" d="M619.592 379.5L627.592 332.5L672.092 343L662.592 387L619.592 379.5Z" stroke="black" stroke-width="5"/>
<path id="Vector 18" d="M701.592 391L663.592 387.5L670.592 343.5L687.092 348.5H708.092L701.592 391Z" stroke="black" stroke-width="5"/>
<path id="Vector 19" d="M660.092 418.5V406L662.592 389.5H700.092L709.592 422.5L705.592 426.5M705.592 426.5H713.592L707.592 474L655.592 468L660.092 418.5L705.592 426.5Z" stroke="black" stroke-width="5"/>
<path id="DLF HYDE PARK" d="M655.092 470.5L592.592 462V434L625.092 437.5L643.092 443H658.092L655.092 470.5Z" stroke="black" stroke-width="5"/>
<path id="Vector 21" d="M634.092 414L595.592 406V435.5L625.092 437.5L634.092 439.5V414Z" stroke="black" stroke-width="5"/>
<path id="Vector 22" d="M619.592 380L615.092 410L660.592 420L662.592 387L619.592 380Z" stroke="black" stroke-width="5"/>
<path id="Vector 23" d="M557.092 429L534.092 426.5L525.592 414V396L559.092 401L593.592 407.5V434L591.592 461L553.092 456L557.092 429ZM559.092 401L557.092 429M593.592 434L557.092 429" stroke="black" stroke-width="5"/>
<path id="Vector 61" d="M618.592 378.5L626.592 330.5L671.592 344L664.592 387.5L618.592 378.5Z" stroke="black" stroke-width="5"/>
<path id="Vector 62" d="M615.092 410.5L620.092 379L664.592 386.5L659.592 416L615.092 410.5Z" stroke="black" stroke-width="5"/>
<path id="Vector 63" d="M636.092 416L614.592 412L611.092 435.5L631.592 438L636.092 416Z" stroke="black" stroke-width="5"/>
<path id="Vector 64" d="M630.592 438L657.092 446L659.592 418.5L636.092 414.5L630.592 440.5" stroke="black" stroke-width="5"/>
<path id="Vector 65" d="M702.092 391.5L665.592 386.5L673.592 343.5L706.092 346.5L702.092 391.5Z" stroke="black" stroke-width="5"/>
<path id="Vector 66" d="M658.592 419L664.092 387.5L697.592 392.5L708.592 426.5L658.592 419Z" stroke="black" stroke-width="5"/>
<path id="Vector 67" d="M712.092 425.5L659.592 419L653.092 467.5L705.592 474L712.092 425.5Z" stroke="black" stroke-width="5"/>
<path id="Vector 68" d="M616.092 410.5L561.092 400L556.592 427L613.092 437L616.092 410.5Z" stroke="black" stroke-width="5"/>
<path id="Vector 69" d="M521.592 394L527.092 394.953M527.092 394.953L559.092 400.5L555.092 429L535.592 426.5C532.592 425.667 526.092 422.6 524.092 417C522.092 411.4 525.259 399.969 527.092 394.953Z" stroke="black" stroke-width="5"/>
</g>
<g id="major roads">
<path id="Vector 2" d="M471.592 310.5L485.092 350.5L492.592 388V414L504.592 450.5L500.092 480.5V496.5L485.092 528.5L472.592 614V672L492.592 747.5L520.592 799L584.092 846.5L652.092 860L697.592 846.5L735.092 799L761.592 755L770.092 711.5V636" stroke="black" stroke-width="10"/>
<path id="Vector 4" d="M258.592 474.5L320.592 483.5L363.092 478.5L400.592 474.5L426.592 470H460.092L473.592 474.5L493.092 470L536.092 456.5H560.092L814.592 490L920.092 502H967.092" stroke="black" stroke-width="10"/>
<path id="Vector 5" d="M43.0922 669.5L116.092 717L165.092 736L222.592 750.5L280.092 760.5L375.592 767H454.592L523.092 750.5L579.592 736L614.092 725H650.592H686.092L719.592 736L747.092 750.5L757.092 760.5" stroke="black" stroke-width="10"/>
<path id="Vector 6" d="M276.092 0V53V84.5L271.092 152L276.092 202V280.5L271.092 323L279.592 342.5L285.092 363L276.092 384L262.092 416.5L251.592 510V529.5L232.092 576L180.092 667.5L139.092 739.5L108.092 779L65.0922 854.5" stroke="black" stroke-width="10"/>
<path id="Vector 8" d="M881.592 353.5V425L874.592 457L881.592 495V540.5V563.5C879.259 589.833 874.592 643.8 874.592 649C874.592 654.2 865.259 737.5 860.592 778.5L867.592 832" stroke="black" stroke-width="10"/>
<path id="Vector 9" d="M585.592 1029.5L659.092 967.5L781.592 879L847.092 837.5L868.092 832.5L1078.09 828L1160.09 832.5L1407.59 837.5" stroke="black" stroke-width="10"/>
<path id="Vector 10" d="M612.592 198L597.092 317L593.092 415V464.5V539.5L588.092 626L583.092 682V730L598.592 762.5L625.592 780.5L659.092 784.5L688.592 771.5L713.592 742L723.592 704.5V617.5L729.592 574.5L723.592 556L713.592 539.5L707.592 521V480L713.592 426.5L701.592 394L707.592 351.5" stroke="black" stroke-width="10"/>
<path id="Vector 11" d="M969.092 611.5L1075.09 704.5L1333.59 723H1413.09" stroke="black" stroke-width="10"/>
<path id="Vector 12" d="M1412.09 597.5L1224.09 593L1065.59 582H1034.09H1006.59L990.592 591L978.092 603.5L952.592 619L935.592 628L910.092 638.5H767.592L706.092 634.5H645.592H600.592L557.092 619L518.092 610.5L468.092 605L373.092 597.5L274.092 582.5L240.592 575.5L65.5922 527.5L1.59224 506" stroke="black" stroke-width="10"/>
<path id="Vector 13" d="M1065.59 576L1000.09 459.5L959.092 407L910.592 356M1000.09 459.5L986.092 472.5L951.592 547.5M951.592 547.5L901.092 624L896.592 637L951.592 547.5ZM951.592 540.5L901.092 534H887.092H864.092L845.092 540.5L819.092 534L803.592 515.5V494.5L812.592 472.5L816.592 456L827.092 436L845.092 422.5H864.092H882.092" stroke="black" stroke-width="10"/>
<path id="Vector 16" d="M167.592 316.5L255.592 282L306.592 300.5L353.592 322L374.592 312.5L395.092 316.5L485.592 305H517.092L598.092 322L690.592 346L898.092 350.5L956.092 346L1025.59 322L1057.09 313L1081.59 322L1108.09 350.5L1144.59 367.5L1226.09 417.5H1412.09" stroke="black" stroke-width="5"/>
<path id="Vector 14" d="M812.092 1030.5L907.592 964.5H990.592L1182.09 973H1333.59" stroke="black" stroke-width="10"/>
<path id="Vector 24" d="M561.592 403L551.592 460V498.5L545.092 537L535.592 597L528.592 627.5L523.092 643L528.592 684.5V723L545.092 760.5L585.592 802L634.592 818.5H695.092L704.092 825L710.592 839.5H731.092L760.592 867.5L786.592 917.5L908.092 1029" stroke="black" stroke-width="5"/>
</g>
<g id="ZONE-2">
<path id="omaxe phase 3" d="M687.592 539.5L707.092 535L724.092 556L727.092 576L724.092 595.5L720.092 632H649.092L653.092 543H667.092L687.592 539.5Z" stroke="black" stroke-width="5"/>
<path id="altus zone 2" d="M652.592 514L593.592 509L590.092 461.5L656.092 471.5L652.592 514Z" stroke="black" stroke-width="5"/>
<path id="altus" d="M649.092 587L591.092 584L585.592 624.5L612.092 634L649.092 630V587Z" stroke="black" stroke-width="5"/>
<path id="block 1" d="M591.592 536V584.5L649.592 586.5L652.092 540.5H628.092L591.592 536Z" stroke="black" stroke-width="5"/>
<path id="block 2" d="M651.092 512.5L594.592 509V537L651.092 543.5L654.592 523L651.092 512.5Z" stroke="black" stroke-width="5"/>
<path id="block 4" d="M514.592 524.5L547.092 529.5L535.092 587V612.5L475.592 604.5L486.592 529.5L494.092 524.5H514.592Z" stroke="black" stroke-width="5"/>
<g id="block 3 saini majra">
<path d="M656.592 524L653.092 542L679.592 538.5L710.092 530.5L705.092 518V473L656.592 466.5L653.092 513L656.592 524Z" stroke="black" stroke-width="5"/>
<path d="M547.592 530.5L592.092 535.5L586.092 628L535.092 613.5V599.5L538.592 583.5L543.592 558L547.592 530.5Z" stroke="black" stroke-width="5"/>
</g>
<path id="block 5" d="M549.092 528.5L552.592 491.5V471.5L557.092 458M557.092 458H531.592L501.092 467V495.5L487.092 528.5L517.092 522.5L549.092 528.5L592.592 535V463L557.092 458Z" stroke="black" stroke-width="5"/>
<path id="COMPLETE ZONE 2" d="M537.592 458L499.092 471.5V497L483.592 528L474.092 609L531.092 613L574.092 624L605.092 636.5H656.092L723.092 630.5L727.592 568L709.592 528L705.592 477.5L676.592 471.5L609.092 463L537.592 458Z" stroke="black" stroke-width="5"/>
</g>
<g id="ZONE 3">
<path id="Vector 30" d="M646.592 687L587.592 679L584.092 734.5L612.592 725L646.592 719.5V687Z" stroke="black" stroke-width="5"/>
<path id="Vector 37" d="M643.092 783.5L637.592 818.5L603.092 807.5L588.592 796.5L607.592 767.5L643.092 783.5Z" stroke="black" stroke-width="5"/>
<path id="Vector 25" d="M530.592 615.5L473.592 606L478.092 675.5H526.092L521.592 640.5L530.592 615.5Z" stroke="black" stroke-width="5"/>
<path id="Vector 26" d="M582.592 674.5H524.592V640L530.592 614L588.092 631L582.592 674.5Z" stroke="black" stroke-width="5"/>
<path id="Vector 27" d="M527.092 674H476.092L499.592 755L537.092 741L527.092 721V674Z" stroke="black" stroke-width="5"/>
<path id="Vector 28" d="M582.592 674.5H526.092V719L540.092 744L582.592 734.5V674.5Z" stroke="black" stroke-width="5"/>
<path id="Vector 29" d="M646.092 686.5L586.092 674.5L589.592 626L606.092 636H646.092V686.5Z" stroke="black" stroke-width="5"/>
<path id="Vector 31" d="M696.092 637.5H646.592V686.5L669.092 692.5L696.092 697.5V637.5Z" stroke="black" stroke-width="5"/>
<path id="Vector 32" d="M694.092 696L644.592 688L649.592 725H689.592L694.092 696Z" stroke="black" stroke-width="5"/>
<path id="Vector 33" d="M693.592 694L689.092 726.5L713.092 732.5L723.092 704L693.592 694Z" stroke="black" stroke-width="5"/>
<path id="Vector 34" d="M721.592 637H694.092V695.5L721.592 704V637Z" stroke="black" stroke-width="5"/>
<path id="Vector 35" d="M493.092 757.5L536.592 744.5L560.092 776L522.592 802L493.092 757.5Z" stroke="black" stroke-width="5"/>
<path id="Vector 36" d="M583.592 844L523.092 800L560.592 776.5L573.092 789.5L601.092 809.5L637.092 819L625.592 855.5L583.592 844Z" stroke="black" stroke-width="5"/>
<path id="Vector 38" d="M585.592 735L541.592 748L585.592 800L608.592 768L597.092 759L585.592 735Z" stroke="black" stroke-width="5"/>
<path id="ZONE 3 FULL MAP" d="M696.092 634H725.092V691.5L714.592 729.5L758.092 761.5L701.092 843L653.092 859L579.092 843L519.592 799L502.592 766L472.092 673V627C470.492 624.2 474.759 610.833 477.092 604.5L515.592 610.5C535.759 612.167 578.292 617.8 587.092 627C595.892 636.2 628.426 635.5 643.592 634H696.092Z" stroke="black" stroke-width="5"/>
</g>
<g id="OTHER BLOCKS">
<path id="Vector 47" d="M734.592 953L721.092 974L709.092 1005L734.592 1030.5H806.592L810.092 1026.5H816.092L810.092 1011.5L793.092 999.5L760.092 966L737.592 950" stroke="black" stroke-width="5"/>
<path id="Vector 46" d="M668.592 968L681.592 983.5M619.092 1029L625.092 1019.5V999L668.592 968L702.592 998.5L709.281 1004.5M681.592 983.5L654.64 1025.07M681.592 983.5L702.592 998.5M652.092 1029H659.092L654.64 1025.07M659.092 1032.5L652.092 1029L654.64 1025.07M625.092 999L654.64 1025.07M709.281 1004.5L736.592 1029H690.092L709.281 1004.5Z" stroke="black" stroke-width="5"/>
<g id="BLOCK E">
<path id="Vector 39" d="M214.592 400L216.092 400.397M216.092 400.397L273.092 415.5H280.592V407.5V389.5L314.592 404L342.092 411.5L336.592 481L295.592 476L257.092 471.5L252.592 511V533H239.592L245.092 520.5L214.592 511L201.592 557.5H189.592L194.092 552L189.592 548L192.592 541.5H198.092L201.592 537L199.592 530L201.592 526.5L203.592 525L201.592 520.5L205.092 515.5L208.592 512V508.5L205.092 502L208.592 499L207.092 495L205.092 492L203.592 487.5L205.092 481L207.092 476L211.092 471.5V469.5V464.5V459L214.592 456L211.092 450.5L207.092 445V442.5H201.592L203.592 436.5L205.092 433H207.092L208.592 431L207.092 427.5L205.092 426V422L207.092 419L208.592 417.5H211.092V411.5H208.592L210.092 405L211.092 402.5V400L214.092 399L216.092 400.397Z" stroke="black" stroke-width="5"/>
<path id="Vector 40" d="M416.092 405.5C417.692 412.3 369.092 410.667 344.592 409L337.092 477L455.092 473.5C457.892 438.7 430.259 413.667 416.092 405.5Z" stroke="black" stroke-width="5"/>
<path id="Vector 41" d="M454.092 474.5L334.592 478C334.592 483.5 335.292 494.9 338.092 496.5C340.892 498.1 336.926 513.833 334.592 521.5L325.092 597.5H362.092L374.592 568C386.592 533 390.592 551 426.592 524.5C455.392 503.3 456.926 482.333 454.092 474.5Z" stroke="black" stroke-width="5"/>
<path id="Vector 42" d="M338.592 478L256.592 471.5L252.592 525L233.092 571.5L324.592 590.5L331.592 546.5L335.592 520L341.092 501.5C336.926 492.5 330.592 475.2 338.592 478Z" stroke="black" stroke-width="5"/>
<path id="Vector 43" d="M325.592 590.5C325.992 595.7 235.759 576 190.592 565.5V581.5L188.592 598L183.092 605V616.5H172.592L169.592 622.5L172.592 627L176.092 631V637.5L179.092 643.5V646L183.092 652L190.592 655.5H201.592L208.592 637.5H215.592H223.092V634.5H231.092L238.592 631L279.592 643.5L282.592 646L290.592 650V643.5H296.592L302.592 627C320.926 628.667 356.592 631.8 352.592 631C347.592 630 359.592 597 361.592 595.5C363.192 594.3 338.259 591.667 325.592 590.5Z" stroke="black" stroke-width="5"/>
<path id="Vector 44" d="M725.592 702.5L716.092 734.5L760.092 759.5L767.592 712.5L725.592 702.5Z" stroke="black" stroke-width="5"/>
<path id="Vector 45" d="M771.592 712L724.592 700.5V634.5L768.092 637L771.592 712Z" stroke="black" stroke-width="5"/>
</g>
<path id="Vector 48" d="M790.592 916.5L757.592 969L812.092 1011.5L815.592 1030.5L865.592 990L790.592 916.5Z" stroke="black" stroke-width="5"/>
<path id="Vector 49" d="M829.092 851L774.592 887V890.5L788.592 919L841.592 969.5L870.592 936L832.592 903L829.092 896L824.592 882V860L829.092 851Z" stroke="black" stroke-width="5"/>
<path id="Vector 50" d="M901.092 968.5L871.592 939L843.592 968.5L868.092 992L901.092 968.5Z" stroke="black" stroke-width="5"/>
<path id="Vector 52" d="M989.092 1027L949.592 994L989.092 969H1028.09L1044.09 994L1051.59 1027H989.092Z" stroke="black" stroke-width="5"/>
<path id="Vector 53" d="M869.092 990.5L870.976 992.291M870.976 992.291L899.592 1019.5L990.592 969.5L913.092 963.5L870.976 992.291Z" stroke="black" stroke-width="5"/>
<path id="Vector 54" d="M907.592 900L869.592 938L838.592 907.5L824.092 890V854L853.092 836H890.592L898.592 867.5L907.592 900Z" stroke="black" stroke-width="5"/>
<path id="Vector 55" d="M871.092 938L904.092 907.5L922.092 913.5L931.592 921L938.592 924.5L931.592 945.5V958" stroke="black" stroke-width="5"/>
<path id="Vector 56" d="M898.592 839.5V850.5V856L901.092 866L907.592 875L912.592 873L919.092 868H926.092L933.592 875L948.092 882H959.592L967.592 885V891L966.592 898.5L967.592 901.5L972.092 903.5V908V913.5V917.5L979.592 919.5C981.092 918.833 984.692 917.9 987.092 919.5C989.492 921.1 992.759 923.167 994.092 924L996.592 927.5C996.592 928.667 996.592 931.2 996.592 932V950L1001.59 951.5H1010.59L1016.59 948L1022.59 946H1027.59V961.5H933.592L930.092 946L939.592 924L922.092 915.5L901.092 908L907.592 898.5L898.592 882V866V839.5Z" stroke="black" stroke-width="5"/>
<path id="Vector 57" d="M618.092 989.5V938.5L611.092 927.5L604.592 921.5L600.592 913.5L611.092 894.5L621.592 877.5L638.092 870.5H652.592L656.092 864H675.592L685.092 870.5L693.592 864V852.5C695.092 852.5 698.892 852.5 702.092 852.5C705.292 852.5 711.759 849.833 714.592 848.5L709.092 843.5L714.592 839.5L733.592 837L751.592 839.5H754.092L744.592 809L747.592 805L754.092 802.5L761.092 797L764.592 792L778.092 785L787.092 781.5L797.092 774H811.592H824.092L833.592 771.5L859.592 792L867.592 827.5L824.092 852.5L764.592 894.5L621.592 989.5" stroke="black" stroke-width="5"/>
<path id="Vector 58" d="M912.592 607.5L897.092 641C915.259 633.833 952.892 619.2 958.092 618C963.292 616.8 970.592 610.5 973.592 607.5L987.592 595L998.092 583.5C1003.59 582.333 1015.89 580 1021.09 580C1026.29 580 1056.59 583.333 1071.09 585L1001.59 460L991.592 467.5L912.592 607.5Z" stroke="black" stroke-width="5"/>
<path id="Vector 60" d="M973.092 501H880.092L874.592 458L880.092 434.5V406.5L874.592 356.5L909.592 351L999.592 458L973.092 501Z" stroke="black" stroke-width="5"/>
<path id="Vector 59" d="M872.592 639C880.259 638.833 896.392 638.6 899.592 639L973.592 505L880.592 500V571.5L872.592 639Z" stroke="black" stroke-width="5"/>
</g>
<g id="PINS">
<path id="PCA STADIUM " d="M838.092 590L768.592 561L776.592 575L798.592 601V634.5H838.092V590Z" stroke="black" stroke-width="5"/>
<path id="stawberry feild high school" d="M658.092 342H652.592L650.592 348.5H658.092V342Z" stroke="black" stroke-width="5"/>
<path id="Medcity New chandigarh" d="M589.092 267H597.092V276L589.092 272.5V267Z" stroke="black" stroke-width="5"/>
<path id="SBI main branch" d="M584.092 248.5V242.5H586.092H592.592V248.5H584.092Z" stroke="black" stroke-width="5"/>
<path id="omaxe international trader tower" d="M532.592 326.5L539.092 316L555.592 323L552.592 332.5L532.592 326.5Z" stroke="black" stroke-width="5"/>
</g>
</svg>
