<svg width="1447" height="1087" viewBox="0 0 1447 1087" fill="none" xmlns="http://www.w3.org/2000/svg">
<rect width="1447" height="1087" fill="#1E1E1E"/>
<path d="M659.011 233.667L692.511 295.167L712.511 411.667L719.511 483.667L708.511 524.667" stroke="black" stroke-width="5"/>
<path d="M451.011 812.667C454.211 813.067 499.677 824.167 522.011 829.667L565.511 854.167L618.011 785.667L640.011 745.167L705.011 692.167L738.011 638.667" stroke="black" stroke-width="5"/>
<path d="M0.0106239 513.667C7.61062 513.667 101.511 542.334 147.511 556.667L385.011 588.667L735.511 800.167L757.011 810.667H793.011L1081.51 791.667H1090.01L1150.51 832.167L1180.51 850.167L1187.51 860.667V873.667L1252.01 1019.17L1279.51 1085.17" stroke="black" stroke-width="5"/>
<path d="M2.01062 292.167L85.5106 405.167L110.511 418.167H146.511L286.011 390.667L520.011 418.167L541.011 430.167L603.011 485.167L639.011 509.167L933.511 629.167L1007.51 733.167L1184.01 1003.67L1234.01 1085.17" stroke="black" stroke-width="5"/>
<path d="M417.011 611.667V724.667L487.511 918.167L534.011 1074.17" stroke="black" stroke-width="5"/>
<path d="M360.011 1.16743L430.511 134.667L450.511 222.667L474.511 361.167L386.011 585.167" stroke="black" stroke-width="5"/>
<path d="M479.011 363.667L531.511 404.167L632.011 497.167L709.511 525.667L765.511 540.167L839.511 532.667H888.511L905.011 540.167L986.011 573.167L1047.01 594.667L1088.51 631.667C1090.84 637.001 1097.91 650.467 1107.51 661.667C1117.11 672.867 1129.18 695.667 1134.01 705.667L1163.51 732.167L1209.01 749.667" stroke="black" stroke-width="5"/>
<path d="M1031.51 1081.17C1048.34 1056.83 1078.51 1001.87 1064.51 976.667C1047.01 945.167 1061.01 891.667 1075.51 897.667L1169.51 826.167L1215.01 724.667C1228.18 711.667 1255.71 686.367 1260.51 689.167C1265.31 691.967 1306.18 681.334 1326.01 675.667L1445.01 602.167" stroke="black" stroke-width="5"/>
<path d="M614.011 118.167L790.011 279.667L802.511 298.167L809.511 319.167L834.511 341.667L868.511 380.167L877.011 408.167L892.511 434.667L919.511 460.167L977.511 485.667L1027.01 504.667L1049.01 521.167L1131.51 587.667L1155.51 598.167L1182.01 601.667L1205.01 598.167L1218.51 601.667L1229.01 609.667C1232.84 614.501 1241.01 624.267 1243.01 624.667C1245.51 625.167 1255.01 631.167 1258.01 632.167C1261.01 633.167 1268.51 634.167 1271.51 634.667L1321.01 640.167L1335.51 646.667L1342.51 657.667L1393.51 740.667L1414.01 764.667L1433.51 782.167L1445.01 788.167" stroke="black" stroke-width="5"/>
<path d="M807.011 329.167L784.511 430.167L762.011 558.667L753.011 661.667L756.011 701.167L744.011 747.167L730.011 794.167L675.011 980.667L663.511 1000.67L535.011 1078.17" stroke="black" stroke-width="5"/>
<path d="M561.011 431.667L680.511 413.667L777.011 405.167L860.511 369.167L926.011 327.167L942.511 311.167L949.011 242.667V182.667" stroke="black" stroke-width="5"/>
<path d="M578.511 163.167L603.011 228.667L615.511 251.667L637.511 353.667L649.011 367.167L659.511 372.167L678.511 406.667L672.011 459.167L592.511 634.667L565.511 645.667L557.011 655.667L549.511 661.667L557.011 684.667L565.511 690.167L530.011 783.167L518.511 815.167V823.667V831.167H511.511C511.511 842.001 511.511 864.467 511.511 867.667C511.511 871.667 521.511 877.167 511.511 883.667C503.511 888.867 497.511 894.834 495.511 897.167L489.511 902.167" stroke="black" stroke-width="5"/>
<path d="M451.011 626.667L477.011 591.167H536.011C552.677 585.501 587.311 573.867 592.511 572.667C597.711 571.467 623.677 565.834 636.011 563.167C648.011 569.334 672.711 582.167 675.511 584.167C679.011 586.667 687.011 590.167 692.511 597.167C696.911 602.767 709.677 612.834 715.511 617.167L726.511 626.667L745.011 639.167H753.511" stroke="black" stroke-width="5"/>
<path d="M593.011 339.167L635.011 336.167V350.667L649.011 366.667L621.011 387.167L603.511 390.167L593.011 339.167Z" stroke="black" stroke-width="5"/>
<path d="M322.511 732.167L348.511 769.167H343.511L380.511 822.667L422.011 853.667L459.011 840.167L417.511 724.167L411.011 632.667L329.511 700.667V732.167H322.511Z" stroke="black" stroke-width="5"/>
<path d="M562.011 697.167L420.011 609.667V614.667V726.167L445.511 810.667L505.511 826.667L520.511 821.167V810.667L562.011 697.167Z" stroke="black" stroke-width="5"/>
<path d="M712.011 849.167L620.011 784.167L642.011 744.667L702.511 694.667L736.511 642.167H758.511V702.667L712.011 849.167Z" stroke="black" stroke-width="5"/>
<path d="M311.511 783.667L346.011 871.667V878.167L417.511 850.167L379.511 821.667L346.011 768.667L311.511 783.667Z" stroke="black" stroke-width="5"/>
<path d="M577.011 396.167L536.011 402.667L563.011 430.167L583.511 425.667L577.011 396.167Z" stroke="black" stroke-width="5"/>
<path d="M622.011 388.167L580.511 396.667L584.511 430.667L629.011 419.667V415.667L622.011 388.167Z" stroke="black" stroke-width="5"/>
<path d="M659.511 359.167L622.011 389.167L628.511 419.667L670.511 411.167V400.167L673.511 389.167L670.511 373.667L659.511 359.167Z" stroke="black" stroke-width="5"/>
<path d="M550.011 389.667C539.344 389.834 516.511 390.067 510.511 389.667L532.011 403.667L603.011 389.667L593.511 340.667L634.011 333.167L611.011 246.167L658.511 235.667L666.511 218.667L662.011 214.167L658.511 205.667L662.011 196.167H649.011L622.511 201.167L598.511 167.167H571.511L550.011 180.167L560.011 188.667V196.167C561.011 198.001 563.811 202.467 567.011 205.667C570.211 208.867 568.344 212.667 567.011 214.167V225.167L563.011 235.667L571.511 240.667L579.511 246.167V253.167V273.167V289.667L575.511 309.667H571.511L575.511 340.667L560.011 345.667L563.011 361.167L546.011 364.167L550.011 389.667Z" stroke="black" stroke-width="5"/>
<path d="M635.011 500.167L561.011 433.667L635.011 420.667L712.011 411.167L719.511 479.167L706.011 522.667L635.011 500.167Z" stroke="black" stroke-width="5"/>
<path d="M694.011 597.667L595.511 633.667L625.511 564.667H639.011L694.011 597.667Z" stroke="black" stroke-width="5"/>
<path d="M678.511 707.667L572.511 644.167L693.011 598.667L736.511 638.167L708.011 690.167L678.511 707.667Z" stroke="black" stroke-width="5"/>
<path d="M710.011 409.667L681.011 416.167L672.011 459.667L648.511 503.667L710.011 520.667L721.011 481.667L710.011 409.667Z" stroke="black" stroke-width="5"/>
<path d="M321.011 883.167L457.011 837.667L415.511 728.167V635.167H407.011L329.011 699.167V728.167L305.011 737.667L287.511 728.167L255.011 774.667L321.011 826.167L296.511 861.167L321.011 883.167Z" stroke="black" stroke-width="5"/>
<path d="M474.511 340.167L477.011 360.167L384.511 582.167L375.011 579.167L226.011 561.167L231.011 473.667L205.511 454.167V446.667L201.011 438.667L209.511 435.167V407.667L205.511 373.167H215.511C217.511 373.167 224.677 370.501 228.011 369.167C232.011 367.501 240.711 364.167 243.511 364.167H254.011H263.011V371.667L264.511 380.167C265.844 381.001 270.711 383.567 279.511 387.167C281.511 390.767 285.011 394.001 286.511 395.167L297.511 397.667L302.011 407.667L308.011 397.667L313.011 405.167L321.011 407.667V417.667H342.511H346.511V427.667H359.011C361.411 427.667 362.344 432.667 362.511 435.167L375.011 438.667L393.511 450.167C397.177 447.334 404.511 441.067 404.511 438.667C404.511 436.267 408.844 435.334 411.011 435.167V425.167C411.011 422.167 415.511 422.167 417.511 421.167C419.111 420.367 425.511 413.501 428.511 410.167C428.511 407.001 427.811 400.067 425.011 397.667C422.211 395.267 423.844 389.667 425.011 387.167L421.011 382.667V373.167V360.167L428.511 340.167L432.011 326.667L443.011 323.167L479.511 312.667L482.011 323.167L474.511 340.167Z" stroke="black" stroke-width="5"/>
<path d="M329.511 894.167L296.011 903.167L360.511 926.167L373.011 931.667H378.511H394.011C397.611 931.667 404.511 938.667 407.511 942.167L420.511 952.167L433.011 960.667H460.011L477.511 952.167L433.011 848.167L320.511 883.667L329.511 894.167Z" stroke="black" stroke-width="5"/>
<path d="M342.011 590.167L401.511 636.167L331.511 697.167L308.011 688.167L279.511 707.667V730.167L256.011 776.167L321.511 820.667L294.511 866.667L331.511 893.667L308.011 901.167L279.511 908.667L256.011 886.167V847.667L242.511 834.167L177.011 820.667L165.011 697.167L226.011 657.167V636.167V590.167L242.511 581.167L279.511 614.167L342.011 590.167Z" stroke="black" stroke-width="5"/>
</svg>
